<mxfile host="app.diagrams.net" agent="Mozilla/5.0 (X11; Linux x86_64) AppleWebKit/537.36 (KHTML, like Gecko) Chrome/127.0.0.0 Safari/537.36" version="24.7.6">
  <diagram id="yPxyJZ8AM_hMuL3Unpa9" name="complex gitflow">
    <mxGraphModel dx="1687" dy="832" grid="1" gridSize="10" guides="1" tooltips="1" connect="1" arrows="1" fold="1" page="1" pageScale="1" pageWidth="1100" pageHeight="850" math="0" shadow="0">
      <root>
        <mxCell id="0" />
        <mxCell id="1" parent="0" />
        <mxCell id="Ud2c-rGIMPgrmA5Fe9ls-14" style="edgeStyle=orthogonalEdgeStyle;rounded=0;orthogonalLoop=1;jettySize=auto;html=1;exitX=1;exitY=0.25;exitDx=0;exitDy=0;entryX=0;entryY=0.25;entryDx=0;entryDy=0;" edge="1" parent="1" source="Ud2c-rGIMPgrmA5Fe9ls-7" target="Ud2c-rGIMPgrmA5Fe9ls-11">
          <mxGeometry relative="1" as="geometry" />
        </mxCell>
        <mxCell id="Ud2c-rGIMPgrmA5Fe9ls-7" value="&lt;div&gt;&lt;font style=&quot;font-size: 12px;&quot;&gt;&lt;br&gt;&lt;/font&gt;&lt;/div&gt;&lt;div&gt;&lt;font style=&quot;font-size: 12px;&quot;&gt;&lt;br&gt;&lt;/font&gt;&lt;/div&gt;&lt;div&gt;&lt;font style=&quot;font-size: 12px;&quot;&gt;&lt;br&gt;&lt;/font&gt;&lt;/div&gt;&lt;div&gt;&lt;font style=&quot;font-size: 12px;&quot;&gt;&lt;br&gt;&lt;/font&gt;&lt;/div&gt;&lt;div&gt;&lt;font style=&quot;font-size: 12px;&quot;&gt;&lt;br&gt;&lt;/font&gt;&lt;/div&gt;&lt;div&gt;&lt;font style=&quot;font-size: 12px;&quot;&gt;&lt;br&gt;&lt;/font&gt;&lt;/div&gt;&lt;font style=&quot;font-size: 12px;&quot;&gt;각 거래소 및 MNA_Type별로 500개씩 반복 호출&lt;/font&gt;&lt;div&gt;(연결 실패 시 재시도 로직)&lt;br&gt;&lt;div style=&quot;&quot;&gt;&lt;font style=&quot;font-size: 12px;&quot;&gt;&lt;br&gt;&lt;/font&gt;&lt;/div&gt;&lt;div style=&quot;&quot;&gt;&lt;font style=&quot;font-size: 12px;&quot;&gt;수집된 데이터는 SQLite DB에 저장 -&amp;gt; data.db 생성&lt;/font&gt;&lt;/div&gt;&lt;/div&gt;&lt;div style=&quot;&quot;&gt;거래소 / 거래타입 별 총 10개의 테이블 생성&lt;/div&gt;" style="rounded=1;whiteSpace=wrap;html=1;align=center;" vertex="1" parent="1">
          <mxGeometry x="201" y="154" width="159" height="216" as="geometry" />
        </mxCell>
        <mxCell id="Ud2c-rGIMPgrmA5Fe9ls-15" value="" style="edgeStyle=orthogonalEdgeStyle;rounded=0;orthogonalLoop=1;jettySize=auto;html=1;" edge="1" parent="1" source="Ud2c-rGIMPgrmA5Fe9ls-4" target="Ud2c-rGIMPgrmA5Fe9ls-7">
          <mxGeometry relative="1" as="geometry" />
        </mxCell>
        <mxCell id="Ud2c-rGIMPgrmA5Fe9ls-4" value="&lt;font style=&quot;font-size: 14px;&quot;&gt;마톡 DB API&lt;/font&gt;" style="rounded=1;whiteSpace=wrap;html=1;" vertex="1" parent="1">
          <mxGeometry x="25" y="164" width="90" height="60" as="geometry" />
        </mxCell>
        <mxCell id="Ud2c-rGIMPgrmA5Fe9ls-5" value="API Script" style="rounded=1;whiteSpace=wrap;html=1;" vertex="1" parent="1">
          <mxGeometry x="222" y="164" width="120" height="60" as="geometry" />
        </mxCell>
        <mxCell id="Ud2c-rGIMPgrmA5Fe9ls-18" style="edgeStyle=orthogonalEdgeStyle;rounded=0;orthogonalLoop=1;jettySize=auto;html=1;exitX=1;exitY=0.25;exitDx=0;exitDy=0;entryX=0;entryY=0.25;entryDx=0;entryDy=0;" edge="1" parent="1" source="Ud2c-rGIMPgrmA5Fe9ls-11" target="Ud2c-rGIMPgrmA5Fe9ls-16">
          <mxGeometry relative="1" as="geometry" />
        </mxCell>
        <mxCell id="Ud2c-rGIMPgrmA5Fe9ls-11" value="&lt;div&gt;&lt;font style=&quot;font-size: 12px;&quot;&gt;&lt;br&gt;&lt;/font&gt;&lt;/div&gt;&lt;div&gt;&lt;font style=&quot;font-size: 12px;&quot;&gt;&lt;br&gt;&lt;/font&gt;&lt;/div&gt;&lt;div&gt;&lt;font style=&quot;font-size: 12px;&quot;&gt;&lt;br&gt;&lt;/font&gt;&lt;/div&gt;&lt;div&gt;&lt;font style=&quot;font-size: 12px;&quot;&gt;&lt;br&gt;&lt;/font&gt;&lt;/div&gt;&lt;div&gt;&lt;font style=&quot;font-size: 12px;&quot;&gt;&lt;br&gt;&lt;/font&gt;&lt;/div&gt;&lt;div&gt;&lt;font style=&quot;font-size: 12px;&quot;&gt;&lt;br&gt;&lt;/font&gt;&lt;/div&gt;각 거래소 테이블 데이터로&amp;nbsp;&lt;div&gt;fts 테이블 생성 및 복사&lt;/div&gt;" style="rounded=1;whiteSpace=wrap;html=1;align=center;" vertex="1" parent="1">
          <mxGeometry x="441" y="153" width="159" height="220" as="geometry" />
        </mxCell>
        <mxCell id="Ud2c-rGIMPgrmA5Fe9ls-12" value="&lt;span style=&quot;font-size: 14px;&quot;&gt;fts script&lt;/span&gt;" style="rounded=1;whiteSpace=wrap;html=1;" vertex="1" parent="1">
          <mxGeometry x="462" y="163" width="120" height="60" as="geometry" />
        </mxCell>
        <mxCell id="Ud2c-rGIMPgrmA5Fe9ls-21" style="edgeStyle=orthogonalEdgeStyle;rounded=0;orthogonalLoop=1;jettySize=auto;html=1;exitX=0.25;exitY=1;exitDx=0;exitDy=0;entryX=0.25;entryY=0;entryDx=0;entryDy=0;" edge="1" parent="1" source="Ud2c-rGIMPgrmA5Fe9ls-19" target="Ud2c-rGIMPgrmA5Fe9ls-16">
          <mxGeometry relative="1" as="geometry">
            <mxPoint x="731" y="80" as="sourcePoint" />
            <mxPoint x="731" y="140" as="targetPoint" />
          </mxGeometry>
        </mxCell>
        <mxCell id="Ud2c-rGIMPgrmA5Fe9ls-27" style="edgeStyle=orthogonalEdgeStyle;rounded=0;orthogonalLoop=1;jettySize=auto;html=1;exitX=1;exitY=0.25;exitDx=0;exitDy=0;entryX=0;entryY=0.25;entryDx=0;entryDy=0;" edge="1" parent="1" source="Ud2c-rGIMPgrmA5Fe9ls-16" target="Ud2c-rGIMPgrmA5Fe9ls-25">
          <mxGeometry relative="1" as="geometry" />
        </mxCell>
        <mxCell id="Ud2c-rGIMPgrmA5Fe9ls-16" value="&lt;div&gt;&lt;font style=&quot;font-size: 12px;&quot;&gt;&lt;br&gt;&lt;/font&gt;&lt;/div&gt;&lt;div&gt;FastAPI or Flask&lt;br&gt;&lt;/div&gt;&lt;div&gt;End point 구성 및 마톡 input을 받아 물건 index 반환&lt;/div&gt;" style="rounded=1;whiteSpace=wrap;html=1;align=center;" vertex="1" parent="1">
          <mxGeometry x="681" y="153" width="159" height="220" as="geometry" />
        </mxCell>
        <mxCell id="Ud2c-rGIMPgrmA5Fe9ls-17" value="&lt;span style=&quot;font-size: 14px;&quot;&gt;Search API&lt;/span&gt;" style="rounded=1;whiteSpace=wrap;html=1;" vertex="1" parent="1">
          <mxGeometry x="698" y="163" width="120" height="60" as="geometry" />
        </mxCell>
        <mxCell id="Ud2c-rGIMPgrmA5Fe9ls-22" style="edgeStyle=orthogonalEdgeStyle;rounded=0;orthogonalLoop=1;jettySize=auto;html=1;exitX=0.75;exitY=0;exitDx=0;exitDy=0;entryX=0.75;entryY=1;entryDx=0;entryDy=0;" edge="1" parent="1" source="Ud2c-rGIMPgrmA5Fe9ls-16" target="Ud2c-rGIMPgrmA5Fe9ls-19">
          <mxGeometry relative="1" as="geometry">
            <mxPoint x="781" y="140" as="sourcePoint" />
            <mxPoint x="790" y="80" as="targetPoint" />
          </mxGeometry>
        </mxCell>
        <mxCell id="Ud2c-rGIMPgrmA5Fe9ls-19" value="&lt;font style=&quot;font-size: 14px;&quot;&gt;마톡&lt;/font&gt;" style="rounded=1;whiteSpace=wrap;html=1;" vertex="1" parent="1">
          <mxGeometry x="681" y="10" width="159" height="60" as="geometry" />
        </mxCell>
        <mxCell id="Ud2c-rGIMPgrmA5Fe9ls-23" value="&lt;font style=&quot;font-size: 10px;&quot;&gt;검색 정보&lt;/font&gt;" style="whiteSpace=wrap;html=1;" vertex="1" parent="1">
          <mxGeometry x="663" y="99" width="50" height="20" as="geometry" />
        </mxCell>
        <mxCell id="Ud2c-rGIMPgrmA5Fe9ls-24" value="&lt;span style=&quot;font-size: 10px;&quot;&gt;Index&lt;/span&gt;" style="whiteSpace=wrap;html=1;" vertex="1" parent="1">
          <mxGeometry x="810" y="100" width="50" height="20" as="geometry" />
        </mxCell>
        <mxCell id="Ud2c-rGIMPgrmA5Fe9ls-25" value="&lt;div&gt;&lt;font style=&quot;font-size: 12px;&quot;&gt;&lt;br&gt;&lt;/font&gt;&lt;/div&gt;&lt;div&gt;Redis or Memcached&lt;/div&gt;&lt;div&gt;Cache Key 생성 및 관리&lt;/div&gt;&lt;div&gt;&lt;br&gt;&lt;/div&gt;&lt;div&gt;cache 관리 주기&lt;/div&gt;" style="rounded=1;whiteSpace=wrap;html=1;align=center;" vertex="1" parent="1">
          <mxGeometry x="921" y="153" width="159" height="220" as="geometry" />
        </mxCell>
        <mxCell id="Ud2c-rGIMPgrmA5Fe9ls-26" value="&lt;span style=&quot;font-size: 14px;&quot;&gt;Caching&lt;/span&gt;" style="rounded=1;whiteSpace=wrap;html=1;" vertex="1" parent="1">
          <mxGeometry x="938" y="163" width="120" height="60" as="geometry" />
        </mxCell>
      </root>
    </mxGraphModel>
  </diagram>
</mxfile>
